<?xml version="1.0" encoding="UTF-8"?>
<svg width="153px" height="24px" viewBox="0 0 153 24" version="1.1" xmlns="http://www.w3.org/2000/svg" xmlns:xlink="http://www.w3.org/1999/xlink">
    <title>full-logo_beta</title>
    <g id="Page-1" stroke="none" stroke-width="1" fill="none" fill-rule="evenodd">
        <g id="full-logo_beta" fill-rule="nonzero">
            <g id="full-logo-copy">
                <path d="M28.0187368,2.44571429 C28.5350526,2.44571429 28.6842105,2.62857143 28.6842105,3.14285714 L28.6842105,7.34857143 C29.5589678,7.13529299 30.4570362,7.03163416 31.3575789,7.04 C34.4554737,7.04 35.9470526,8.52571429 35.9470526,11.4971429 L35.9470526,18.1714286 C35.9470526,18.6857143 35.7634737,18.8571429 35.2586316,18.8571429 L34.0997895,18.8571429 C33.5834737,18.8571429 33.4113684,18.6857143 33.4113684,18.1714286 L33.4113684,11.5657143 C33.4113684,10.1257143 32.6082105,9.39428571 30.9789474,9.39428571 C30.1992651,9.34574043 29.4179396,9.45858718 28.6842105,9.72571429 L28.6842105,18.1714286 C28.6842105,18.6857143 28.5350526,18.8571429 28.0187368,18.8571429 L26.7910526,18.8571429 C26.2862105,18.8571429 26.1026316,18.6857143 26.1026316,18.1714286 L26.1026316,3.14285714 C26.1026316,2.62857143 26.2862105,2.44571429 26.7910526,2.44571429 L28.0187368,2.44571429 Z" id="Path" fill="#FFFFFF"></path>
                <path d="M38.0696842,11.8285714 C38.0696842,8.73142857 39.8710526,7.04 43.2328421,7.04 C46.5946316,7.04 48.3730526,8.94857143 48.3730526,11.6114286 L48.3730526,12.96 C48.4048552,13.2293117 48.3085584,13.4979649 48.1127094,13.686317 C47.9168605,13.874669 47.643935,13.9611047 47.3748421,13.92 L40.6512632,13.92 L40.6512632,14.7314286 C40.6512632,16.1828571 41.5691579,16.96 43.1869474,16.96 C44.2040753,17.0688511 45.2032383,16.6342509 45.8144211,15.8171429 C46.1701053,15.3028571 46.4225263,15.2571429 46.9617895,15.5428571 L47.742,15.9657143 C48.2583158,16.2171429 48.3501053,16.5714286 48.0173684,17.1085714 C47.1453684,18.5257143 45.5390526,19.2457143 43.1984211,19.2457143 C39.7563158,19.2457143 38.0811579,17.4057143 38.0811579,14.4914286 L38.0696842,11.8285714 Z M45.7914737,11.4285714 C45.7914737,9.98857143 44.9309474,9.14285714 43.2328421,9.14285714 C41.5347368,9.14285714 40.6512632,9.96571429 40.6512632,11.4285714 L40.6512632,11.92 L45.7914737,11.92 L45.7914737,11.4285714 Z" id="Shape" fill="#FFFFFF"></path>
                <path d="M56.1063158,7.04 C56.6226316,7.04 56.8062105,7.2 56.8062105,7.72571429 L56.8062105,8.70857143 C56.8062105,9.21142857 56.6226316,9.39428571 56.1063158,9.39428571 L55.3146316,9.39428571 C54.598182,9.38173618 53.883554,9.4702325 53.192,9.65714286 C53.1279806,9.66292427 53.0689347,9.69394689 53.0279947,9.74331096 C52.9870548,9.79267504 52.9676153,9.85628739 52.974,9.92 L52.974,18.1714286 C52.974,18.6857143 52.8133684,18.8571429 52.3085263,18.8571429 L51.0808421,18.8571429 C50.5645263,18.8571429 50.3924211,18.6857143 50.3924211,18.1714286 L50.3924211,9.02857143 C50.3105117,8.44854204 50.6821196,7.90072488 51.2529474,7.76 C52.5894768,7.32120427 53.9876892,7.097444 55.3949474,7.09714286 L56.1063158,7.04 Z" id="Path" fill="#FFFFFF"></path>
                <path d="M57.6323158,11.4285714 C57.6323158,8.66285714 59.4795789,6.99428571 62.7495789,6.99428571 C66.0195789,6.99428571 67.8897895,8.70857143 67.8897895,11.4285714 L67.8897895,14.7085714 C67.8897895,17.4857143 66.0425263,19.1542857 62.7495789,19.1542857 C59.4566316,19.1542857 57.6323158,17.4857143 57.6323158,14.7085714 L57.6323158,11.4285714 Z M65.3082105,11.4285714 C65.3082105,10.08 64.3788421,9.32571429 62.7495789,9.32571429 C61.1203158,9.32571429 60.2138947,10.08 60.2138947,11.4285714 L60.2138947,14.7085714 C60.2138947,16.0457143 61.1203158,16.8228571 62.7495789,16.8228571 C64.3788421,16.8228571 65.3082105,16.0457143 65.3082105,14.7085714 L65.3082105,11.4285714 Z" id="Shape" fill="#FFFFFF"></path>
                <path d="M71.4122105,16 C72.5595789,16 72.8464211,16.3542857 72.8464211,17.4171429 L72.8464211,17.6228571 C72.8464211,18.7657143 72.5136842,19.04 71.4122105,19.04 L71.2630526,19.04 C70.1156842,19.04 69.8403158,18.7085714 69.8403158,17.6228571 L69.8403158,17.4171429 C69.8403158,16.3542857 70.1730526,16 71.2630526,16 L71.4122105,16 Z" id="Path" fill="#FFFFFF"></path>
                <path d="M0,18.8685714 L0,12.8571429 C0,10.08 1.89315789,8.35428571 4.42884211,7.68 L11.3130526,5.84 C11.8096339,5.74297083 12.1547579,5.29116279 12.1162105,4.78857143 L12.1162105,0 L17.8530526,0 L17.8530526,6.01142857 C17.8530526,8.77714286 15.9598947,10.5028571 13.4242105,11.1771429 L6.54,13.0171429 C6.04506146,13.1144955 5.70356045,13.5680399 5.74831579,14.0685714 L5.74831579,18.8685714 L0,18.8685714 Z" id="Path" fill="#FFFFFF"></path>
                <path d="M12.1162105,18.8685714 L17.8530526,18.8685714 L17.8530526,11.84 C15.3173684,11.84 12.1162105,13.4628571 12.1162105,16.0114286 L12.1162105,18.8685714 L12.1162105,18.8685714 Z" id="Path" fill="#00BAFF"></path>
                <path d="M5.73684211,0 L0,0 L0,7.02857143 C2.53568421,7.02857143 5.73684211,5.40571429 5.73684211,2.85714286 L5.73684211,0 Z" id="Path" fill="#FFFFFF"></path>
                <path d="M74.9346316,9.34857143 C75.7377895,7.8247619 77.267614,7.06285714 79.5241053,7.06285714 C82.6908421,7.06285714 84.2856842,8.58285714 84.2856842,11.6342857 L84.2856842,17.3485714 C84.3096911,17.6336808 84.2498919,17.9195879 84.1135789,18.1714286 C83.9512256,18.3779718 83.7319209,18.5328674 83.4825263,18.6171429 C82.1979162,19.0665692 80.8382156,19.2644834 79.4782105,19.2 C78.1147142,19.3400413 76.7430265,19.0265973 75.5771579,18.3085714 C74.8436924,17.6068277 74.4754976,16.6077579 74.5789474,15.6 C74.4636231,14.5436306 74.8959863,13.5014256 75.7263158,12.8342857 C76.9223424,12.1994103 78.2768331,11.9216411 79.6273684,12.0342857 L81.7614737,12.1371429 L81.7614737,11.52 C81.8084695,10.923777 81.6189898,10.3329554 81.2336842,9.87428571 C80.7651848,9.47062784 80.1527468,9.27278029 79.5355789,9.32571429 C78.6364163,9.25435215 77.7655085,9.65773197 77.2408421,10.3885714 C77.0802105,10.632381 76.9425263,10.7695238 76.8277895,10.8 C76.6403068,10.8278599 76.4487388,10.8000328 76.2770526,10.72 L75.3935789,10.3428571 C74.8504912,10.1219048 74.6975088,9.79047619 74.9346316,9.34857143 Z M81.7270526,16.5828571 L81.7270526,14.2971429 L80.442,14.24 L79.5814737,14.24 L79.2946316,14.24 C78.7220402,14.1901537 78.147392,14.3094014 77.6424211,14.5828571 C77.2912944,14.8529674 77.1083335,15.2868759 77.1605263,15.7257143 C77.1138896,16.1588879 77.2857826,16.5869308 77.6194737,16.8685714 C78.1116199,17.1544511 78.6817545,17.2784277 79.2487368,17.2228571 C79.9959606,17.1845638 80.7376323,17.0735591 81.4631579,16.8914286 C81.6467368,16.8114286 81.7270526,16.7085714 81.7270526,16.5828571 Z" id="Shape" fill="#FFFFFF"></path>
                <path d="M87.5097895,7.68 C88.8907286,7.2312397 90.3371174,7.0149413 91.7894737,7.04 C94.9179649,7.04 96.4822105,8.53333333 96.4822105,11.52 L96.4822105,14.56 C96.4822105,17.6457143 94.83,19.2 91.5255789,19.2 C90.7479677,19.1533112 89.978158,19.0191242 89.2308421,18.8 L89.2308421,23.0514286 C89.2517875,23.2428774 89.198422,23.4350555 89.0816842,23.5885714 C88.9375335,23.7069375 88.7506823,23.7607045 88.5653684,23.7371429 L87.3376842,23.7371429 C87.1437211,23.7888361 86.9368036,23.7335709 86.7948264,23.592152 C86.6528492,23.450733 86.5973658,23.2446291 86.6492632,23.0514286 L86.6492632,8.94857143 C86.6329255,8.67626428 86.6882979,8.4044305 86.8098947,8.16 C86.9932888,7.93768441 87.2358526,7.77132999 87.5097895,7.68 Z M93.9465263,14.4685714 L93.9465263,11.5885714 C93.9465263,10.1257143 93.1204211,9.39414721 91.4567368,9.39414721 C90.7951882,9.39147523 90.1359448,9.47211663 89.4947368,9.63428571 C89.3660185,9.67012767 89.2769423,9.7868723 89.2767368,9.92 L89.2767368,16.5142857 C89.9799622,16.7098194 90.7040976,16.821082 91.4337895,16.8457143 C93.0974737,16.8457143 93.9465263,16.0571429 93.9465263,14.4685714 Z" id="Shape" fill="#FFFFFF"></path>
                <path d="M99.5801053,7.68 C100.975642,7.22618359 102.43797,7.00982177 103.905684,7.04 C107.034175,7.04 108.598421,8.53333333 108.598421,11.52 L108.598421,14.56 C108.598421,17.6457143 106.946211,19.2 103.630316,19.2 C102.852705,19.1533112 102.082895,19.0191242 101.335579,18.8 L101.335579,23.0514286 C101.351085,23.2424015 101.298247,23.4326795 101.186421,23.5885714 C101.037501,23.7063739 100.847426,23.7598793 100.658632,23.7371429 L99.408,23.7371429 C99.2140368,23.7888361 99.0071194,23.7335709 98.8651422,23.592152 C98.723165,23.450733 98.6676816,23.2446291 98.7195789,23.0514286 L98.7195789,8.94857143 C98.6974423,8.67588834 98.7531262,8.40252543 98.8802105,8.16 C99.0636046,7.93768441 99.3061683,7.77132999 99.5801053,7.68 Z M106.016842,14.4685714 L106.016842,11.5885714 C106.016842,10.1257143 105.190737,9.39428571 103.527053,9.39428571 C102.850157,9.38756864 102.17524,9.46824019 101.519158,9.63428571 C101.39044,9.67012767 101.301363,9.7868723 101.301158,9.92 L101.301158,16.5142857 C102.004196,16.7106808 102.728436,16.8219594 103.458211,16.8457143 C105.167789,16.8457143 106.016842,16.0571429 106.016842,14.4685714 Z" id="Shape" fill="#FFFFFF"></path>
            </g>
            <g id="Group-2-Copy" transform="translate(117.000000, 4.000000)">
                <rect id="Rectangle" fill="#00BAFF" x="0" y="0" width="36" height="15" rx="2"></rect>
                <path d="M8.11,11 C8.42333333,11 8.73833333,10.9666667 9.055,10.9 C9.37166667,10.8333333 9.65666667,10.7233333 9.91,10.57 C10.1633333,10.4166667 10.37,10.215 10.53,9.965 C10.69,9.715 10.77,9.40333333 10.77,9.03 C10.77,8.80333333 10.7333333,8.59 10.66,8.39 C10.5866667,8.19 10.4816667,8.015 10.345,7.865 C10.2083333,7.715 10.045,7.59166667 9.855,7.495 C9.665,7.39833333 9.45333333,7.33333333 9.22,7.3 L9.22,7.3 L9.22,7.28 C9.58666667,7.16666667 9.88166667,6.97833333 10.105,6.715 C10.3283333,6.45166667 10.44,6.12 10.44,5.72 C10.44,5.33333333 10.3633333,5.02333333 10.21,4.79 C10.0566667,4.55666667 9.85666667,4.375 9.61,4.245 C9.36333333,4.115 9.085,4.02833333 8.775,3.985 C8.465,3.94166667 8.15666667,3.92 7.85,3.92 L7.85,3.92 L5.21,3.92 L5.21,11 L8.11,11 Z M7.9,6.75 L6.77,6.75 L6.77,5.24 L7.83,5.24 C7.95,5.24 8.07333333,5.25166667 8.2,5.275 C8.32666667,5.29833333 8.44,5.33666667 8.54,5.39 C8.64,5.44333333 8.72166667,5.51833333 8.785,5.615 C8.84833333,5.71166667 8.88,5.83333333 8.88,5.98 C8.88,6.12 8.85166667,6.24 8.795,6.34 C8.73833333,6.44 8.66333333,6.52 8.57,6.58 C8.47666667,6.64 8.37166667,6.68333333 8.255,6.71 C8.13833333,6.73666667 8.02,6.75 7.9,6.75 L7.9,6.75 Z M8.17,9.68 L6.77,9.68 L6.77,8.07 L7.95,8.07 C8.07666667,8.07 8.21333333,8.08 8.36,8.1 C8.50666667,8.12 8.64333333,8.15666667 8.77,8.21 C8.89666667,8.26333333 9.00166667,8.34166667 9.085,8.445 C9.16833333,8.54833333 9.21,8.68333333 9.21,8.85 C9.21,9.00333333 9.17833333,9.13333333 9.115,9.24 C9.05166667,9.34666667 8.97,9.43333333 8.87,9.5 C8.77,9.56666667 8.65833333,9.61333333 8.535,9.64 C8.41166667,9.66666667 8.29,9.68 8.17,9.68 L8.17,9.68 Z M17.365,11 L17.365,9.56 L13.935,9.56 L13.935,8.12 L17.005,8.12 L17.005,6.68 L13.935,6.68 L13.935,5.36 L17.185,5.36 L17.185,3.92 L12.375,3.92 L12.375,11 L17.365,11 Z M22.17,11 L22.17,5.3 L24.19,5.3 L24.19,3.92 L18.59,3.92 L18.59,5.3 L20.61,5.3 L20.61,11 L22.17,11 Z M25.675,11 L26.265,9.5 L29.015,9.5 L29.625,11 L31.385,11 L28.305,3.92 L27.015,3.92 L23.955,11 L25.675,11 Z M28.485,8.18 L26.755,8.18 L27.615,5.98 L28.485,8.18 Z" id="BETA" fill="#FFFFFF"></path>
            </g>
        </g>
    </g>
</svg>