<svg id="Layer_1" data-name="Layer 1" xmlns="http://www.w3.org/2000/svg" viewBox="0 0 40 40"><defs><style>.cls-1{fill:#222;}</style></defs><path class="cls-1" d="M27.5,38A10.5,10.5,0,1,1,38,27.5,10.51,10.51,0,0,1,27.5,38Zm0-19A8.5,8.5,0,1,0,36,27.5,8.51,8.51,0,0,0,27.5,19Z"/><path class="cls-1" d="M26.59,28.64H24.48a.6.6,0,0,1-.3-.07.39.39,0,0,1-.07-.58L25,26.85l3.47-4.64a.73.73,0,0,1,.17-.18A.36.36,0,0,1,29,22a.36.36,0,0,1,.2.38c0,.23-.09.45-.13.68l-.66,3.24v0h2.13a.45.45,0,0,1,.36.14.39.39,0,0,1,0,.5l-.4.53-3.94,5.29c-.18.24-.41.29-.61.13a.41.41,0,0,1-.14-.44c.06-.26.11-.53.16-.79.21-1,.42-2,.62-3Z"/><path class="cls-1" d="M15.18,29.5H12.83V25h2.42a12.16,12.16,0,0,1,.6-2h-3V18.5h6a12.48,12.48,0,0,1,2.72-2H12.83V12H31v3.51a12.75,12.75,0,0,1,2,.78V6.5a3,3,0,0,0-3-3H5a3,3,0,0,0-3,3v22a3,3,0,0,0,3,3H15.67A11.92,11.92,0,0,1,15.18,29.5Zm-2.35-24H30a1,1,0,0,1,1,1V10H12.83Zm-2,24H5a1,1,0,0,1-1-1V25h6.83Zm0-6.5H4V18.5h6.83Zm0-6.5H4V12h6.83Zm0-6.5H4V6.5a1,1,0,0,1,1-1h5.83Z"/></svg>