<svg id="Layer_1" data-name="Layer 1" xmlns="http://www.w3.org/2000/svg" viewBox="0 0 40 40"><defs><style>.cls-1{fill:#222;}</style></defs><path class="cls-1" d="M30,3H10a7,7,0,0,0-7,7V30a7,7,0,0,0,7,7H22.41l.3-.29h0l14-14h0l.29-.3V10A7,7,0,0,0,30,3ZM5,30V10a5,5,0,0,1,5-5H30a5,5,0,0,1,5,5V21H24a3,3,0,0,0-3,3V35H10A5,5,0,0,1,5,30Zm28.59-7L23,33.59V24a1,1,0,0,1,1-1Z"/><path class="cls-1" d="M12,13H28a1,1,0,0,0,0-2H12a1,1,0,0,0,0,2Z"/><path class="cls-1" d="M28,18a1,1,0,0,0,0-2H12a1,1,0,0,0,0,2Z"/></svg>