<svg id="Layer_1" data-name="Layer 1" xmlns="http://www.w3.org/2000/svg" viewBox="0 0 40 40"><defs><style>.cls-1{fill:#222;}</style></defs><path class="cls-1" d="M20,24.5A4.5,4.5,0,1,1,24.5,20,4.51,4.51,0,0,1,20,24.5Zm0-7A2.5,2.5,0,1,0,22.5,20,2.5,2.5,0,0,0,20,17.5Z"/><path class="cls-1" d="M20,8a3,3,0,1,1,3-3A3,3,0,0,1,20,8Zm0-4a1,1,0,1,0,1,1A1,1,0,0,0,20,4Z"/><path class="cls-1" d="M5.57,29.5a3,3,0,1,1,3-3A3,3,0,0,1,5.57,29.5Zm0-4a1,1,0,1,0,1,1A1,1,0,0,0,5.57,25.5Z"/><path class="cls-1" d="M34.35,29.5a3,3,0,1,1,3-3A3,3,0,0,1,34.35,29.5Zm0-4a1,1,0,1,0,1,1A1,1,0,0,0,34.35,25.5Z"/><path class="cls-1" d="M20.46,31.19h-.92a1.94,1.94,0,0,1-1.93-1.93v-.72a8.62,8.62,0,0,1-2-.81l-.51.51a2,2,0,0,1-2.72,0l-.66-.66a1.93,1.93,0,0,1,0-2.72l.51-.51a8.62,8.62,0,0,1-.81-2h-.72a1.94,1.94,0,0,1-1.93-1.93v-.92a1.94,1.94,0,0,1,1.93-1.93h.72a8.62,8.62,0,0,1,.81-2l-.51-.51a1.93,1.93,0,0,1,0-2.72l.66-.66a1.93,1.93,0,0,1,2.72,0l.51.51a8.62,8.62,0,0,1,2-.81v-.72a1.94,1.94,0,0,1,1.93-1.93h.92a1.94,1.94,0,0,1,1.93,1.93v.72a8.62,8.62,0,0,1,2,.81l.51-.51a1.93,1.93,0,0,1,2.72,0l.66.66a1.93,1.93,0,0,1,0,2.72l-.51.51a8.62,8.62,0,0,1,.81,2h.72a1.94,1.94,0,0,1,1.93,1.93v.92a1.94,1.94,0,0,1-1.93,1.93h-.72a8.62,8.62,0,0,1-.81,2l.51.51a1.93,1.93,0,0,1,0,2.72l-.66.66a2,2,0,0,1-2.72,0l-.51-.51a8.62,8.62,0,0,1-2,.81v.72A1.94,1.94,0,0,1,20.46,31.19Zm-.85-2h.78V27.74a1,1,0,0,1,.82-1,6.76,6.76,0,0,0,2.71-1.12,1,1,0,0,1,1.28.11l1,1,.55-.55-1-1a1,1,0,0,1-.11-1.28,6.76,6.76,0,0,0,1.12-2.71,1,1,0,0,1,1-.82h1.45v-.78H27.74a1,1,0,0,1-1-.82,6.9,6.9,0,0,0-1.12-2.71,1,1,0,0,1,.11-1.28l1-1-.55-.55-1,1a1,1,0,0,1-1.28.11,6.9,6.9,0,0,0-2.71-1.12,1,1,0,0,1-.82-1V10.81h-.78v1.45a1,1,0,0,1-.82,1,6.9,6.9,0,0,0-2.71,1.12,1,1,0,0,1-1.28-.11l-1-1-.55.55,1,1a1,1,0,0,1,.11,1.28,6.9,6.9,0,0,0-1.12,2.71,1,1,0,0,1-1,.82H10.81v.78h1.45a1,1,0,0,1,1,.82,6.76,6.76,0,0,0,1.12,2.71,1,1,0,0,1-.11,1.28l-1,1,.55.55,1-1a1,1,0,0,1,1.28-.11,6.76,6.76,0,0,0,2.71,1.12,1,1,0,0,1,.82,1Zm6.66-2.37Zm-12.44,0Zm-.65-.55Zm13.64-.1Zm2.44-6.56h0ZM13.18,13.83Zm13.64-.1Z"/><path class="cls-1" d="M15.25,5.55v0s0-.08,0-.12a1.27,1.27,0,0,0,0-.2A.64.64,0,0,0,15.17,5a.89.89,0,0,0-.08-.17L15,4.7l-.14-.12a.76.76,0,0,0-.18-.09.6.6,0,0,0-.11-.06l-3.34-1a1,1,0,1,0-.57,1.91l1.15.34A16.41,16.41,0,0,0,3.5,20c0,.2,0,.39,0,.58a1,1,0,0,0,1,1h0a1,1,0,0,0,1-1c0-.17,0-.34,0-.51A14.43,14.43,0,0,1,13,7.3l-.17,1.34a1,1,0,0,0,.86,1.12h.13a1,1,0,0,0,1-.87l.39-3A1.36,1.36,0,0,0,15.25,5.55Z"/><path class="cls-1" d="M39.08,17.93a1,1,0,0,0-1.42,0L36.47,19.2A16.42,16.42,0,0,0,26.11,4.67a1,1,0,0,0-.74,1.86,14.42,14.42,0,0,1,9.09,12.39l-.73-.5a1,1,0,0,0-1.13,1.65L35.4,22l.14.07.1.05a1.28,1.28,0,0,0,.33.06h0a1,1,0,0,0,.42-.1,1.25,1.25,0,0,0,.12-.08.75.75,0,0,0,.18-.13l2.42-2.52A1,1,0,0,0,39.08,17.93Z"/><path class="cls-1" d="M31.53,30.41a1,1,0,0,0-1.41,0A14.5,14.5,0,0,1,11.91,32L13.24,32a1,1,0,0,0,1-1,1,1,0,0,0-1-1l-4,.15a1,1,0,0,0-.93.84,1.25,1.25,0,0,0,0,.19h0l.16,4a1,1,0,0,0,1,1h0a1,1,0,0,0,1-1l-.07-1.74a16.45,16.45,0,0,0,21.2-1.51A1,1,0,0,0,31.53,30.41Z"/></svg>