<svg id="Layer_1" data-name="Layer 1" xmlns="http://www.w3.org/2000/svg" viewBox="0 0 40 40"><defs><style>.cls-1{fill:#222;}</style></defs><path class="cls-1" d="M30,37H10a7,7,0,0,1-7-7V10a7,7,0,0,1,7-7H30a7,7,0,0,1,7,7V30A7,7,0,0,1,30,37ZM10,5a5,5,0,0,0-5,5V30a5,5,0,0,0,5,5H30a5,5,0,0,0,5-5V10a5,5,0,0,0-5-5Z"/><path class="cls-1" d="M11,28.35a1,1,0,0,1-.71-1.71L16.93,20l-6.64-6.64a1,1,0,0,1,0-1.41,1,1,0,0,1,1.42,0l6.75,6.75a1.83,1.83,0,0,1,0,2.6l-6.75,6.75A1,1,0,0,1,11,28.35Zm6.05-8.23h0Z"/><path class="cls-1" d="M29.08,29h-11a1,1,0,0,1,0-2h11a1,1,0,0,1,0,2Z"/></svg>