<svg id="Layer_1" data-name="Layer 1" xmlns="http://www.w3.org/2000/svg" viewBox="0 0 40 40"><defs><style>.cls-1{fill:#222;}</style></defs><path class="cls-1" d="M13,19H5a3,3,0,0,1-3-3V8A3,3,0,0,1,5,5h8a3,3,0,0,1,3,3v8A3,3,0,0,1,13,19ZM5,7A1,1,0,0,0,4,8v8a1,1,0,0,0,1,1h8a1,1,0,0,0,1-1V8a1,1,0,0,0-1-1Z"/><path class="cls-1" d="M37,10H20a1,1,0,0,1,0-2H37a1,1,0,0,1,0,2Z"/><path class="cls-1" d="M30,14H20a1,1,0,0,1,0-2H30a1,1,0,0,1,0,2Z"/><path class="cls-1" d="M8.27,14.78a1,1,0,0,1-.7-.3L5.39,12.31a1,1,0,0,1,0-1.41,1,1,0,0,1,1.42,0l1.46,1.46,2.85-2.84a1,1,0,0,1,1.42,1.41L9,14.48A1,1,0,0,1,8.27,14.78Z"/><path class="cls-1" d="M13,35H5a3,3,0,0,1-3-3V24a3,3,0,0,1,3-3h8a3,3,0,0,1,3,3v8A3,3,0,0,1,13,35ZM5,23a1,1,0,0,0-1,1v8a1,1,0,0,0,1,1h8a1,1,0,0,0,1-1V24a1,1,0,0,0-1-1Z"/><path class="cls-1" d="M37,26H20a1,1,0,0,1,0-2H37a1,1,0,0,1,0,2Z"/><path class="cls-1" d="M30,30H20a1,1,0,0,1,0-2H30a1,1,0,0,1,0,2Z"/><path class="cls-1" d="M8.27,30.78a1,1,0,0,1-.7-.3L5.39,28.31a1,1,0,0,1,0-1.41,1,1,0,0,1,1.42,0l1.46,1.46,2.85-2.84a1,1,0,0,1,1.42,1.41L9,30.48A1,1,0,0,1,8.27,30.78Z"/></svg>