<svg id="Layer_1" data-name="Layer 1" xmlns="http://www.w3.org/2000/svg" viewBox="0 0 40 40"><defs><style>.cls-1{fill:#222;}</style></defs><path class="cls-1" d="M24.45,21.3a2.51,2.51,0,0,0-3.54,0L17,25.22l-2-2L19,19.33a2.5,2.5,0,0,0-3.54-3.53l-3.93,3.92L8.81,17.05h0a1,1,0,0,0-1.42,0,1,1,0,0,0,0,1.41L5.27,20.59a6,6,0,0,0,0,8.48l.71.71-.71.71a3,3,0,0,0-.58,3.4L2.15,36.44a1,1,0,0,0,0,1.41,1,1,0,0,0,.71.29,1,1,0,0,0,.7-.29L6.11,35.3a2.91,2.91,0,0,0,1.28.31,3,3,0,0,0,2.12-.88l.71-.71.71.71a6,6,0,0,0,8.48,0l2.13-2.12a1,1,0,0,0,.7.29,1,1,0,0,0,.71-.29,1,1,0,0,0,0-1.42h0l-2.43-2.43,3.93-3.93A2.5,2.5,0,0,0,24.45,21.3Zm-7.63-4.09a.49.49,0,0,1,.36-.14.48.48,0,0,1,.35.14.5.5,0,0,1,0,.71l-3.89,3.89-.71-.71ZM8.1,33.31a1,1,0,0,1-1.41,0,1,1,0,0,1,0-1.41l.7-.71,1.42,1.42Zm9.9,0a4,4,0,0,1-5.66,0l-.7-.7h0L7.39,28.36l-.7-.7a4,4,0,0,1,0-5.66l2.12-2.12,5.65,5.66,5.66,5.65Zm5-9.89-3.89,3.89-.71-.71,3.89-3.89a.49.49,0,0,1,.36-.14.48.48,0,0,1,.35.14A.5.5,0,0,1,23,23.42Z"/><path class="cls-1" d="M37.85,2.15a1,1,0,0,0-1.41,0L33.89,4.69a3,3,0,0,0-1.28-.3,3,3,0,0,0-2.12.88L29.78,6l-.71-.71a6,6,0,0,0-8.48,0L18.46,7.39a1,1,0,0,0-1.41,0,1,1,0,0,0,0,1.42h0L31.19,23h0a1,1,0,0,0,1.42,0,1,1,0,0,0,0-1.41l2.12-2.13a6,6,0,0,0,0-8.48L34,10.22l.71-.71a3,3,0,0,0,.57-3.4l2.55-2.55A1,1,0,0,0,37.85,2.15ZM33.31,12.34a4,4,0,0,1,0,5.66l-2.12,2.12-5.65-5.66L19.88,8.81,22,6.69a4,4,0,0,1,5.66,0l.7.7,4.25,4.25ZM31.9,6.69a1,1,0,0,1,1.41,0,1,1,0,0,1,0,1.41l-.7.71L31.19,7.39Z"/></svg>