<svg id="Layer_1" data-name="Layer 1" xmlns="http://www.w3.org/2000/svg" viewBox="0 0 40 40"><defs><style>.cls-1{fill:#222;}</style></defs><path class="cls-1" d="M20,12a8,8,0,1,0,8,8A8,8,0,0,0,20,12ZM17.8,25.58V24.33a2.2,2.2,0,0,1,4.4,0v1.25a6,6,0,0,1-4.4,0ZM19,19.13a1,1,0,1,1,1,1A1,1,0,0,1,19,19.13Zm5.19,5.15a4.18,4.18,0,0,0-1.78-3.38A2.92,2.92,0,0,0,23,19.13a3,3,0,1,0-6,0,2.92,2.92,0,0,0,.59,1.77,4.18,4.18,0,0,0-1.78,3.38A5.94,5.94,0,0,1,14,20a6,6,0,0,1,12,0A5.94,5.94,0,0,1,24.19,24.28Z"/><path class="cls-1" d="M30,32a1,1,0,0,0-1.4-.22A14.49,14.49,0,0,1,20,34.61a14.59,14.59,0,0,1-12.6-22l.5,2.53a1,1,0,0,0,1,.81.65.65,0,0,0,.19,0,1,1,0,0,0,.79-1.17l-1-4.91a1,1,0,0,0-1.18-.79l-4.9,1A1,1,0,0,0,3,12l.19,0,2.53-.5A16.6,16.6,0,0,0,29.8,33.4,1,1,0,0,0,30,32Z"/><path class="cls-1" d="M37,27.64l-2.56.5A16.6,16.6,0,0,0,10.21,6.59,1,1,0,1,0,11.39,8.2,14.47,14.47,0,0,1,20,5.39,14.6,14.6,0,0,1,32.82,27l-.49-2.51a1,1,0,0,0-1.18-.79,1,1,0,0,0-.78,1.18l1,4.9a1,1,0,0,0,1,.81.62.62,0,0,0,.19,0l4.91-1a1,1,0,1,0-.39-2Z"/></svg>