<svg id="Layer_1" data-name="Layer 1" xmlns="http://www.w3.org/2000/svg" viewBox="0 0 40 40"><defs><style>.cls-1{fill:#222;}</style></defs><path class="cls-1" d="M5,31.5a3,3,0,0,1-3-3V6.5a3,3,0,0,1,3-3H30a3,3,0,0,1,3,3H31a1,1,0,0,0-1-1H5a1,1,0,0,0-1,1v22a1,1,0,0,0,1,1Z"/><path class="cls-1" d="M35,8.5H10a3,3,0,0,0-3,3v22a3,3,0,0,0,3,3H35a3,3,0,0,0,3-3v-22A3,3,0,0,0,35,8.5Zm-19.17,13H9V17h6.83Zm0,2V28H9V23.5Zm2,0H36V28H17.83Zm0-2V17H36v4.5ZM36,11.5V15H17.83V10.5H35A1,1,0,0,1,36,11.5Zm-26-1h5.83V15H9V11.5A1,1,0,0,1,10,10.5Zm-1,23V30h6.83v4.5H10A1,1,0,0,1,9,33.5Zm26,1H17.83V30H36v3.5A1,1,0,0,1,35,34.5Z"/></svg>