<svg id="Layer_1" data-name="Layer 1" xmlns="http://www.w3.org/2000/svg" viewBox="0 0 40 40"><defs><style>.cls-1{fill:#222;}</style></defs><path class="cls-1" d="M30,3H10a7,7,0,0,0-7,7V30a7,7,0,0,0,7,7H30a7,7,0,0,0,7-7V10A7,7,0,0,0,30,3Zm5,27a5,5,0,0,1-5,5H10a5,5,0,0,1-5-5V10a5,5,0,0,1,5-5H30a5,5,0,0,1,5,5Z"/><path class="cls-1" d="M26,18a4,4,0,1,0-4-4v2H18V14a4,4,0,1,0-4,4h2v4H14a4,4,0,1,0,4,4V24h4v2a4,4,0,1,0,4-4H24V18Zm-2-4a2,2,0,1,1,2,2H24ZM14,16a2,2,0,1,1,2-2v2Zm2,10a2,2,0,1,1-2-2h2Zm10-2a2,2,0,1,1-2,2V24Zm-4-2H18V18h4Z"/></svg>