<svg id="Layer_1" data-name="Layer 1" xmlns="http://www.w3.org/2000/svg" viewBox="0 0 40 40"><defs><style>.cls-1{fill:#222;}</style></defs><path class="cls-1" d="M30,3H10a7,7,0,0,0-7,7V30a7,7,0,0,0,7,7H30a7,7,0,0,0,7-7V10A7,7,0,0,0,30,3Zm5,27a5,5,0,0,1-5,5H10a5,5,0,0,1-5-5V10a5,5,0,0,1,5-5H30a5,5,0,0,1,5,5Z"/><path class="cls-1" d="M29,19H26.84a3.48,3.48,0,0,0-6.68,0H11a1,1,0,0,0,0,2h9.16a3.48,3.48,0,0,0,6.68,0H29a1,1,0,0,0,0-2Zm-5.5,2.5A1.5,1.5,0,1,1,25,20,1.5,1.5,0,0,1,23.5,21.5Z"/><path class="cls-1" d="M29,12H19.84a3.48,3.48,0,0,0-6.68,0H11a1,1,0,0,0,0,2h2.16a3.48,3.48,0,0,0,6.68,0H29a1,1,0,0,0,0-2ZM16.5,14.5A1.5,1.5,0,1,1,18,13,1.5,1.5,0,0,1,16.5,14.5Z"/><path class="cls-1" d="M29,26H19.84a3.48,3.48,0,0,0-6.68,0H11a1,1,0,0,0,0,2h2.16a3.48,3.48,0,0,0,6.68,0H29a1,1,0,0,0,0-2ZM16.5,28.5A1.5,1.5,0,1,1,18,27,1.5,1.5,0,0,1,16.5,28.5Z"/></svg>