<svg id="Layer_1" data-name="Layer 1" xmlns="http://www.w3.org/2000/svg" viewBox="0 0 40 40"><defs><style>.cls-1{fill:#222;}</style></defs><path class="cls-1" d="M12.48,9.84A4.48,4.48,0,0,0,14,6.52,4.53,4.53,0,1,0,6.37,9.84,6.43,6.43,0,0,0,3,15.5v2.57a.64.64,0,0,0,.64.64H15.21a.64.64,0,0,0,.65-.64V15.5A6.44,6.44,0,0,0,12.48,9.84ZM9.43,4A2.53,2.53,0,1,1,6.9,6.52,2.52,2.52,0,0,1,9.43,4Zm4.43,12.71H5V15.5a4.43,4.43,0,0,1,8.86,0Z"/><path class="cls-1" d="M33.63,29.13a4.52,4.52,0,1,0-6.12,0,6.44,6.44,0,0,0-3.37,5.66v2.57a.65.65,0,0,0,.65.64H36.36a.64.64,0,0,0,.64-.64V34.79A6.42,6.42,0,0,0,33.63,29.13Zm-3.06-5.84a2.53,2.53,0,1,1-2.52,2.52A2.53,2.53,0,0,1,30.57,23.29ZM35,36H26.14V34.79a4.43,4.43,0,0,1,8.86,0Z"/><path class="cls-1" d="M34.92,14.65a1,1,0,0,0-1.42,0l-1.93,1.93V13.84c0-3.89-2.12-6.41-5.41-6.41H17.79a1,1,0,0,0,0,2h8.37c3.17,0,3.41,3.38,3.41,4.41v2.74l-1.93-1.93a1,1,0,0,0-1.41,0,1,1,0,0,0,0,1.42l3.63,3.64a1,1,0,0,0,.71.29,1,1,0,0,0,.71-.29l3.64-3.64A1,1,0,0,0,34.92,14.65Z"/><path class="cls-1" d="M22,30.65H14.87a4.42,4.42,0,0,1-4.41-4.41V23.49l1.93,1.93a1,1,0,0,0,1.41,0,1,1,0,0,0,0-1.41l-3.63-3.64a1,1,0,0,0-1.42,0L5.12,24a1,1,0,0,0,0,1.41,1,1,0,0,0,.7.29,1,1,0,0,0,.71-.29l1.93-1.93v2.75a6.42,6.42,0,0,0,6.41,6.41H22a1,1,0,0,0,0-2Z"/></svg>