<?xml version="1.0" encoding="utf-8"?>
<!-- Generator: Adobe Illustrator 21.1.0, SVG Export Plug-In . SVG Version: 6.00 Build 0)  -->
<svg version="1.1" id="Layer_1" xmlns="http://www.w3.org/2000/svg" xmlns:xlink="http://www.w3.org/1999/xlink" x="0px" y="0px"
	 width="24px" height="24px" viewBox="0 0 24 24" style="enable-background:new 0 0 24 24;" xml:space="preserve">
<style type="text/css">
	.st0{fill:#FFFFFF;stroke:#000000;stroke-linecap:round;stroke-miterlimit:10;stroke-dasharray:1,3;}
	.st1{fill:#FFFFFF;stroke:#000000;stroke-miterlimit:10;}
	.st2{fill:none;stroke:#000000;stroke-linecap:round;stroke-miterlimit:10;}
	.st3{fill:#FFFFFF;stroke:#000000;stroke-linecap:round;stroke-miterlimit:10;}
	.st4{fill:#FFFFFF;stroke:#000000;stroke-linecap:round;stroke-linejoin:round;stroke-miterlimit:10;}
	.st5{fill:none;stroke:#000000;stroke-linecap:round;stroke-linejoin:round;stroke-miterlimit:10;}
	.st6{fill:none;stroke:#000000;stroke-linejoin:round;stroke-miterlimit:10;}
	.st7{fill:#FFFFFF;stroke:#000000;stroke-linejoin:round;stroke-miterlimit:10;}
	.st8{fill:#FFFFFF;}
</style>
<path class="st8" d="M11.4,2c0.4,0,0.8,0,1.2,0c0,0,0.1,0,0.1,0c1,0.1,1.9,0.3,2.9,0.6c1.1,0.4,2.2,1.1,3.1,1.9
	c0.8,0.7,1.5,1.6,2,2.5c0.6,1.1,1.1,2.4,1.2,3.7c0,0.2,0.1,0.5,0.1,0.7c0,0.4,0,0.8,0,1.2c0,0.1,0,0.1,0,0.2c-0.1,1-0.3,2-0.7,3
	c-0.7,1.8-1.9,3.2-3.4,4.4c-1.2,0.8-2.4,1.4-3.8,1.7c-1.4,0.3-2.9,0.3-4.3-0.1C8.4,21.4,7.1,20.8,6,20c-0.8-0.6-1.6-1.4-2.2-2.2
	c-1-1.3-1.5-2.8-1.8-4.5c0-0.2-0.1-0.5-0.1-0.7c0-0.4,0-0.8,0-1.2c0,0,0-0.1,0-0.1c0.1-1,0.3-1.9,0.6-2.8c0.4-1.1,1.1-2.2,1.9-3.1
	c0.7-0.8,1.5-1.5,2.5-2c1.1-0.7,2.4-1.1,3.7-1.2C10.9,2.1,11.2,2,11.4,2z M15.3,19.9c0,0,0-0.1,0-0.1c-0.3-1.1-0.5-2.2-0.8-3.2
	c-0.3-1-0.7-2-1-3c0-0.1-0.1-0.1-0.2-0.1c-0.6,0.3-1.3,0.5-1.9,0.8c-0.8,0.4-1.6,0.9-2.3,1.5c-0.6,0.5-1.1,1-1.5,1.5
	c-0.3,0.4-0.6,0.8-0.9,1.3c0,0.1-0.1,0.1,0,0.2c0.7,0.5,1.5,1,2.4,1.3c0.9,0.3,1.7,0.5,2.7,0.5C13.1,20.6,14.2,20.3,15.3,19.9z
	 M12.9,12C12.9,11.9,12.9,11.9,12.9,12c-0.2-0.5-0.4-0.9-0.6-1.4c0-0.1-0.1-0.1-0.2-0.1c-1.1,0.3-2.3,0.6-3.5,0.8
	c-1.6,0.3-3.3,0.4-5,0.4c-0.2,0-0.2,0-0.2,0.2c0,0,0,0.1,0,0.1c0,0.9,0.2,1.9,0.5,2.8c0.3,1,0.8,1.8,1.5,2.6
	c0.1,0.1,0.2,0.2,0.3,0.3C7.4,15,9.8,12.9,12.9,12z M11.5,9.2c0-0.1-0.1-0.1-0.1-0.2c-0.2-0.3-0.3-0.5-0.5-0.8
	c-0.8-1.3-1.6-2.6-2.5-3.9c-0.1-0.1-0.1-0.1-0.2,0C7.6,4.7,7,5.1,6.4,5.5C5.1,6.7,4.2,8.1,3.8,9.7c0,0.2-0.1,0.3-0.1,0.5
	C6.3,10.2,8.9,9.9,11.5,9.2z M10,3.7c0.2,0.3,0.4,0.5,0.5,0.7c0.4,0.6,0.8,1.1,1.1,1.7c0.5,0.8,1,1.7,1.5,2.5c0,0.1,0.1,0.1,0.2,0.1
	c0.2-0.1,0.4-0.1,0.5-0.2c0.9-0.4,1.7-0.9,2.5-1.5c0.4-0.4,0.9-0.8,1.2-1.2c0.1-0.1,0.1-0.1,0-0.2c-0.1-0.1-0.2-0.1-0.3-0.2
	c-0.9-0.7-2-1.3-3.1-1.6c-1.2-0.3-2.3-0.4-3.5-0.2C10.4,3.6,10.2,3.6,10,3.7z M20.5,11.9c0-2-0.7-3.8-1.9-5.3
	c-0.6,0.8-1.4,1.4-2.2,2c-0.8,0.6-1.7,1-2.6,1.4c0.2,0.5,0.5,1.1,0.7,1.6c0,0,0.1,0.1,0.2,0.1c1-0.1,2-0.1,3-0.1
	c0.6,0,1.2,0.1,1.8,0.2C19.8,11.8,20.2,11.8,20.5,11.9z M15.1,13c0.7,2,1.3,4,1.7,6.1c0,0,0.1,0,0.1,0c0,0,0.1,0,0.1-0.1
	c1-0.7,1.8-1.6,2.4-2.6c0.5-0.9,0.9-1.8,1.1-2.8c0-0.2,0-0.2-0.2-0.3c-1.3-0.4-2.7-0.5-4.1-0.4C15.8,12.9,15.5,12.9,15.1,13z"/>
</svg>
