<?xml version="1.0" encoding="utf-8"?>
<!-- Generator: Adobe Illustrator 21.1.0, SVG Export Plug-In . SVG Version: 6.00 Build 0)  -->
<svg version="1.1" id="Layer_1" xmlns="http://www.w3.org/2000/svg" xmlns:xlink="http://www.w3.org/1999/xlink" x="0px" y="0px"
	 width="24px" height="24px" viewBox="0 0 24 24" style="enable-background:new 0 0 24 24;" xml:space="preserve">
<style type="text/css">
	.st0{fill:#FFFFFF;stroke:#000000;stroke-linecap:round;stroke-miterlimit:10;stroke-dasharray:1,3;}
	.st1{fill:#FFFFFF;stroke:#000000;stroke-miterlimit:10;}
	.st2{fill:none;stroke:#000000;stroke-linecap:round;stroke-miterlimit:10;}
	.st3{fill:#FFFFFF;stroke:#000000;stroke-linecap:round;stroke-miterlimit:10;}
	.st4{fill:#FFFFFF;stroke:#000000;stroke-linecap:round;stroke-linejoin:round;stroke-miterlimit:10;}
	.st5{fill:none;stroke:#000000;stroke-linecap:round;stroke-linejoin:round;stroke-miterlimit:10;}
	.st6{fill:none;stroke:#000000;stroke-linejoin:round;stroke-miterlimit:10;}
	.st7{fill:#FFFFFF;stroke:#000000;stroke-linejoin:round;stroke-miterlimit:10;}
	.st8{fill:#FFFFFF;}
</style>
<path class="st8" d="M21,12c0,2.5,0,5.1,0,7.6c0,0.3-0.1,0.6-0.3,0.9c-0.3,0.3-0.6,0.5-1,0.5c-5.1,0-10.3,0-15.4,0
	c-0.7,0-1.2-0.5-1.3-1.1c0-0.1,0-0.1,0-0.2C3,14.5,3,9.4,3,4.3C3,3.7,3.4,3.2,4,3c0.1,0,0.2,0,0.3,0c5.1,0,10.2,0,15.4,0
	c0.6,0,1.2,0.4,1.3,1c0,0.1,0,0.2,0,0.3C21,6.9,21,9.5,21,12z M18.4,18.3c0,0,0-0.1,0-0.1c0-0.6,0-1.1,0-1.7c0-1.2,0-2.4,0-3.6
	c0-0.3,0-0.6-0.1-0.8c-0.1-0.5-0.2-0.9-0.4-1.3c-0.3-0.5-0.7-0.8-1.3-1c-0.5-0.2-1-0.2-1.5-0.2c-0.3,0-0.5,0-0.8,0.1
	c-0.7,0.2-1.2,0.6-1.6,1.2c0,0,0,0.1-0.1,0.1c0,0,0,0,0,0c0,0,0-0.1,0-0.1c0-0.3,0-0.6,0-1c0-0.1,0-0.1-0.1-0.1c-0.8,0-1.6,0-2.3,0
	c-0.1,0-0.1,0-0.1,0.1c0,2.8,0,5.6,0,8.4c0,0.1,0,0.1,0.1,0.1c0.8,0,1.6,0,2.4,0c0.1,0,0.1,0,0.1-0.1c0-1.5,0-3,0-4.5
	c0-0.3,0.1-0.6,0.2-0.9c0.2-0.4,0.4-0.7,0.9-0.8c0.3-0.1,0.5-0.1,0.8-0.1c0.5,0.1,0.8,0.3,1,0.7c0.1,0.3,0.2,0.7,0.2,1
	c0,1.5,0,3.1,0,4.6c0,0.1,0,0.1,0.1,0.1c0.8,0,1.6,0,2.5,0C18.3,18.3,18.3,18.3,18.4,18.3z M5.7,18.3c0,0,0.1,0,0.1,0
	c0.8,0,1.6,0,2.5,0c0.1,0,0.1,0,0.1-0.1c0-2.8,0-5.6,0-8.4c0-0.1,0-0.1-0.1-0.1c-0.8,0-1.6,0-2.4,0c-0.1,0-0.1,0-0.1,0.1
	c0,2.8,0,5.6,0,8.4C5.7,18.3,5.7,18.3,5.7,18.3z M5.4,7c0,0.9,0.7,1.6,1.6,1.6c0.9,0,1.6-0.7,1.6-1.6c0-0.9-0.7-1.6-1.6-1.6
	C6.2,5.5,5.4,6.2,5.4,7z"/>
</svg>
