<svg width="24" height="24" viewBox="0 0 24 24" fill="none" xmlns="http://www.w3.org/2000/svg">
<path d="M12 24C18.6274 24 24 18.6274 24 12C24 5.37258 18.6274 0 12 0C5.37258 0 0 5.37258 0 12C0 18.6274 5.37258 24 12 24Z" fill="white"/>
<path d="M12 24C18.6274 24 24 18.6274 24 12C24 5.37258 18.6274 0 12 0C5.37258 0 0 5.37258 0 12C0 18.6274 5.37258 24 12 24Z" fill="url(#paint0_radial)"/>
<path d="M15.7333 4H8.26667C5.92 4 4 5.92 4 8.26667V15.7333C4 18.08 5.92 20 8.26667 20H15.7333C18.08 20 20 18.08 20 15.7333V8.26667C20 5.92 18.08 4 15.7333 4ZM18.6667 15.288C18.6667 17.1467 17.1467 18.6667 15.288 18.6667H8.712C6.85333 18.6667 5.33333 17.1467 5.33333 15.288V8.712C5.33333 6.85333 6.85333 5.33333 8.712 5.33333H15.2907C17.1467 5.33333 18.6667 6.85333 18.6667 8.712V15.288Z" fill="white"/>
<path d="M12 7.42944C9.47465 7.42944 7.42932 9.47744 7.42932 12.0001C7.42932 14.5228 9.47465 16.5708 12 16.5708C14.5253 16.5708 16.5707 14.5254 16.5707 12.0001C16.5707 9.47478 14.5253 7.42944 12 7.42944ZM12 14.9174C10.3893 14.9174 9.08265 13.6108 9.08265 12.0001C9.08265 10.3894 10.3893 9.08278 12 9.08278C13.6107 9.08278 14.9173 10.3894 14.9173 12.0001C14.9173 13.6108 13.6107 14.9174 12 14.9174Z" fill="white"/>
<path d="M16.5707 8.34398C17.0758 8.34398 17.4853 7.93447 17.4853 7.42932C17.4853 6.92416 17.0758 6.51465 16.5707 6.51465C16.0655 6.51465 15.656 6.92416 15.656 7.42932C15.656 7.93447 16.0655 8.34398 16.5707 8.34398Z" fill="white"/>
<defs>
<radialGradient id="paint0_radial" cx="0" cy="0" r="1" gradientUnits="userSpaceOnUse" gradientTransform="translate(4.76199 23.3681) scale(30.9567)">
<stop stop-color="#FCEE21"/>
<stop offset="0.0443152" stop-color="#FBE721"/>
<stop offset="0.1099" stop-color="#FAD322"/>
<stop offset="0.1887" stop-color="#F8B222"/>
<stop offset="0.2769" stop-color="#F48523"/>
<stop offset="0.35" stop-color="#F15A24"/>
<stop offset="0.5" stop-color="#D4145A"/>
<stop offset="0.8" stop-color="#93278F"/>
<stop offset="1" stop-color="#93278F"/>
</radialGradient>
</defs>
</svg>
